<?xml version="1.0" encoding="UTF-8"?>
<svg version="1.1" xmlns="http://www.w3.org/2000/svg" width="64" height="64">
<path d="M0 0 C1.32 0 2.64 0 4 0 C4 0.66 4 1.32 4 2 C4.99 2 5.98 2 7 2 C7 3.65 7 5.3 7 7 C6.01 7 5.02 7 4 7 C5.41117776 11.39530243 7.51429691 13.86644817 10.7890625 17.08203125 C11.48399307 17.77059456 11.48399307 17.77059456 12.19296265 18.47306824 C13.66337336 19.92678699 15.14390105 21.36968043 16.625 22.8125 C17.62829278 23.80073367 18.63090457 24.78965921 19.6328125 25.77929688 C22.08192792 28.19308851 24.53777212 30.59959731 27 33 C26.34 34.32 25.68 35.64 25 37 C24.34 37 23.68 37 23 37 C23 45.91 23 54.82 23 64 C9.14 64 -4.72 64 -19 64 C-19 55.09 -19 46.18 -19 37 C-20.32 36.34 -21.64 35.68 -23 35 C-21.47225779 31.35215762 -19.29678769 29.1049595 -16.46484375 26.375 C-15.57345703 25.50359375 -14.68207031 24.6321875 -13.76367188 23.734375 C-11.87753869 21.9095053 -9.9895118 20.08659086 -8.09960938 18.265625 C-7.20951172 17.39421875 -6.31941406 16.5228125 -5.40234375 15.625 C-4.17245728 14.43777344 -4.17245728 14.43777344 -2.91772461 13.2265625 C-1.03314375 11.03848134 -0.37062937 9.82016357 0 7 C-0.99 7 -1.98 7 -3 7 C-3 5.35 -3 3.7 -3 2 C-2.01 2 -1.02 2 0 2 C0 1.34 0 0.68 0 0 Z M-8.73266602 23.59594727 C-14.62689127 29.90506605 -15.18395965 35.9853869 -15.00872803 44.43008423 C-14.82405312 49.63476745 -14.5091005 54.81552941 -14 60 C-11.69 60 -9.38 60 -7 60 C-7.00902344 59.20335937 -7.01804687 58.40671875 -7.02734375 57.5859375 C-6.78806536 49.03433578 -6.78806536 49.03433578 -4.375 45.8671875 C-2.64359523 44.42202303 -0.93662492 43.15287332 1 42 C7.62717391 45.30652174 7.62717391 45.30652174 10 48 C10.7350313 51.99473533 10.92984299 55.94364898 11 60 C13.31 60 15.62 60 18 60 C20.35209844 42.03108324 20.35209844 42.03108324 14.73046875 25.734375 C11.26591957 22.02595678 7.42502993 18.52906962 3 16 C-1.60135314 16 -5.50435932 20.67278342 -8.73266602 23.59594727 Z M0 48 C-2.24324836 49.81193006 -2.24324836 49.81193006 -2.1953125 52.3828125 C-2.17210938 53.28773437 -2.14890625 54.19265625 -2.125 55.125 C-2.10695313 56.03507812 -2.08890625 56.94515625 -2.0703125 57.8828125 C-2.04710938 58.58148438 -2.02390625 59.28015625 -2 60 C0.64 60 3.28 60 6 60 C6.05395478 58.37536158 6.09277195 56.75021459 6.125 55.125 C6.15980469 53.76761719 6.15980469 53.76761719 6.1953125 52.3828125 C6.24324836 49.81193006 6.24324836 49.81193006 4 48 C2.68 48 1.36 48 0 48 Z " fill="#000000" transform="translate(30,0)"/>
<path d="M0 0 C2.3125 1.125 2.3125 1.125 4 3 C5.20362584 6.69111926 5.34418291 8.29598951 3.625 11.8125 C2 14 2 14 1 15 C-6.2 15.46451613 -6.2 15.46451613 -8.9375 13.875 C-10.46849826 11.17323836 -10.8757742 9.10564495 -11 6 C-8.37232694 0.369272 -6.10237696 -0.48819016 0 0 Z M-5 5 C-5.33 6.32 -5.66 7.64 -6 9 C-3.525 9.495 -3.525 9.495 -1 10 C-0.67 9.01 -0.34 8.02 0 7 C-0.33 6.34 -0.66 5.68 -1 5 C-2.32 5 -3.64 5 -5 5 Z " fill="#000000" transform="translate(35,23)"/>
</svg>
